<svg width="24" height="24" viewBox="0 0 24 24" fill="none" xmlns="http://www.w3.org/2000/svg">
<g clip-path="url(#clip0)">
<path d="M0.383636 12.9327L9.05087 21.6002C9.29828 21.8476 9.62804 21.9834 9.97964 21.9834C10.3316 21.9834 10.6612 21.8474 10.9086 21.6002L11.6955 20.8131C11.9427 20.566 12.0789 20.2361 12.0789 19.8843C12.0789 19.5327 11.9427 19.1916 11.6955 18.9446L6.63919 13.8771L22.7034 13.8771C23.4277 13.8771 24 13.3101 24 12.5856L24 11.4729C24 10.7484 23.4277 10.1242 22.7034 10.1242L6.58182 10.1242L11.6953 5.02841C11.9426 4.781 12.0787 4.46003 12.0787 4.10823C12.0787 3.75681 11.9426 3.43116 11.6953 3.18394L10.9084 2.39936C10.661 2.15195 10.3314 2.01712 9.97945 2.01712C9.62784 2.01712 9.29809 2.1537 9.05068 2.40112L0.383441 11.0684C0.135443 11.3166 -0.000945209 11.6479 3.03607e-05 12.0001C-0.000750151 12.3534 0.135443 12.6849 0.383636 12.9327Z" fill="#0D1131"/>
</g>
<defs>
<clipPath id="clip0">
<rect width="24" height="24" fill="white" transform="translate(24 24) rotate(-180)"/>
</clipPath>
</defs>
</svg>
