<svg width="24" height="24" viewBox="0 0 24 24" fill="none" xmlns="http://www.w3.org/2000/svg">
<g clip-path="url(#clip0)">
<path d="M12.6636 23.725C12.6639 23.7248 12.6642 23.7245 12.6645 23.7242L17.5395 18.8256C17.9047 18.4586 17.9033 17.865 17.5363 17.4997C17.1693 17.1345 16.5758 17.1359 16.2105 17.5028L12.9375 20.7918L12.9375 0.9375C12.9375 0.419719 12.5178 -2.31439e-07 12 -2.54072e-07C11.4822 -2.76705e-07 11.0625 0.419718 11.0625 0.9375L11.0625 20.7917L7.78952 17.5029C7.42427 17.1359 6.83069 17.1345 6.4637 17.4997C6.09663 17.865 6.09536 18.4587 6.46052 18.8256L11.3355 23.7242C11.3358 23.7245 11.3361 23.7248 11.3364 23.7251C11.7029 24.0923 12.2984 24.0911 12.6636 23.725Z" fill="#EB5757"/>
</g>
<defs>
<clipPath id="clip0">
<rect width="24" height="24" fill="white" transform="translate(24) rotate(90)"/>
</clipPath>
</defs>
</svg>
